<svg width="280" height="72" viewBox="0 0 280 72" fill="none" xmlns="http://www.w3.org/2000/svg">
  <rect width="72" height="72" rx="18" fill="#CF1767"/>
  <path d="M21 23h15c10 0 16 5 16 13s-6 13-16 13H30v11H21V23zm14 19c5 0 8-2 8-6s-3-6-8-6h-5v12h5z" fill="white"/>
  <path d="M57 49c0 6-5 11-11 11H34v-8h12c2 0 3-1 3-3s-1-3-3-3h-6v-7h6c6 0 11 4 11 10z" fill="#F7D1E4"/>
  <text x="88" y="33" fill="#161A20" font-family="Arial, Helvetica, sans-serif" font-size="26" font-weight="700" letter-spacing="1.2">ON-SPOT</text>
  <text x="88" y="56" fill="#5F6977" font-family="Arial, Helvetica, sans-serif" font-size="14" font-weight="700" letter-spacing="2.4">MOBILE MECHANIX</text>
</svg>
